<?xml version="1.0" encoding="UTF-8"?> <svg xmlns="http://www.w3.org/2000/svg" width="340" height="57" viewBox="0 0 340 57" fill="none"><g clip-path="url(#clip0_12581_15845)"><circle cx="28.5" cy="28.5" r="28.5" fill="#E7E5D9"></circle><path fill-rule="evenodd" clip-rule="evenodd" d="M36.2547 8.70839C36.9281 8.33846 37.7429 8 38.5331 8C39.1807 8 39.7479 8.13923 40.2525 8.41416C40.7375 8.67836 41.0929 9.03004 41.3654 9.33406C41.5323 9.52028 41.6726 9.68838 41.8025 9.8441C42.1353 10.243 42.4002 10.5606 42.872 10.8931C43.5381 11.3626 44.3548 11.6929 45.2228 12.0255C45.6395 12.185 46.0583 12.3408 46.4645 12.5257C46.835 12.6944 47.2874 12.9295 47.6441 13.2753C48.262 13.874 48.6733 14.525 48.8691 15.2445C49.0629 15.9569 49.0154 16.6267 48.8949 17.2119C48.6875 18.2198 48.2137 19.1528 48.0239 20.1646C47.8955 20.8492 48.175 21.6577 48.3283 22.319C48.4575 22.8784 48.6075 23.4448 48.6231 24.0212C48.6407 24.6675 48.4038 25.3175 47.8251 25.6608C47.1438 26.0651 46.3359 25.8369 45.6589 25.5421C45.3629 25.4131 44.8237 25.1502 44.463 24.9872C43.5952 24.5949 42.4361 24.1432 40.7962 23.8784C39.8711 23.7289 39.0847 23.6409 38.4407 23.604C38.6542 23.7104 38.8683 23.8156 39.0824 23.9208C40.2187 24.4787 41.6544 25.1837 43.0668 26.0962C44.7217 27.1654 45.8431 28.2665 46.3818 29.3775C46.6584 29.9478 46.8004 30.5626 46.7285 31.1826C46.6552 31.8154 46.3687 32.362 45.9441 32.7822C45.213 33.5058 44.0449 33.889 43.133 34.3245C41.7668 34.9769 40.0424 35.8012 38.3963 36.7241C38.4627 37.504 38.6172 38.7191 38.9723 40.132C39.6048 42.6485 40.8511 45.7078 43.283 48.1267L41.3997 50C38.5047 47.1204 37.0876 43.5566 36.3884 40.7746C36.1551 39.8465 35.9992 38.9954 35.8949 38.271C34.812 39.0254 33.2791 40.0349 32.9903 41.3876C32.3217 44.5197 31.9103 46.6639 31.7474 47.5352C31.6299 48.1631 31.5197 48.7923 31.4068 49.421L31.2396 49.3728C30.2254 49.0805 29.2116 48.7883 28.1908 48.5196C27.1466 48.2447 25.8489 47.9226 24.7743 47.7143C23.7169 47.5093 22.6317 47.6119 21.5673 47.7001C20.5592 47.7842 19.3906 47.8817 18.1989 47.7277C17.0028 47.5731 16.139 47.3158 15.523 46.9122C14.8107 46.4455 14.5702 45.8766 14.447 45.5183C14.341 45.2101 14.3534 44.868 14.3925 44.5547C14.5352 43.411 14.8993 42.2826 15.2798 41.2001C15.956 39.2764 17.0492 36.8526 18.6421 34.6914C19.7453 33.1947 20.9896 31.7676 22.0444 30.5579C22.4474 30.0956 22.8228 29.6651 23.152 29.2746C23.6332 28.7038 24.0024 28.2354 24.2558 27.858C23.6199 27.8815 22.745 28.0356 21.7621 28.3638C19.7299 29.0424 17.4736 30.3828 16.042 32.464C14.486 34.726 13.528 36.9594 12.96 38.628C12.662 39.5034 12.3787 40.4087 12.2301 41.3243L11.7452 44.3319C10.4344 42.655 9.1026 40.996 7.92216 39.2239C7.43403 38.4911 6.92514 37.6746 6.52369 36.9038C6.14912 36.1846 5.76993 35.3263 5.70966 34.5669C5.63089 33.5745 5.60096 32.5744 6.18804 31.4365C6.72356 30.3985 7.71844 29.3528 9.28904 27.9756C10.1883 27.1871 11.4901 26.3888 12.8485 25.6483C14.2265 24.8971 15.7469 24.1608 17.132 23.5078C17.6211 23.2772 18.0892 23.0588 18.5289 22.8537L19.0364 22.6169C18.8374 22.5927 18.6321 22.5717 18.4217 22.5547C16.4184 22.393 14.1575 22.6102 12.4187 23.6935C10.4618 24.9127 9.24024 26.137 8.51911 27.0271C7.88679 27.8075 7.63338 28.3387 7.60777 28.394C7.60777 28.394 6.12258 28.1561 5.05888 27.9912C4.93539 26.4656 5.01024 24.9089 5.24503 23.3985C5.61717 21.0044 6.59534 17.851 9.26502 16.1558C11.7013 14.6089 14.3772 14.1396 16.7276 14.036C17.9052 13.9841 19.0223 14.0233 20.0016 14.073C21.0116 14.1242 21.8096 14.1816 22.4728 14.1816C23.3928 14.1816 24.3372 14.0701 25.3098 13.9554C25.7477 13.9037 26.1914 13.8514 26.6411 13.8082C27.314 13.7437 28.0202 13.7003 28.6455 13.7609C29.2277 13.8173 30.0423 13.9887 30.6106 14.6313C30.6993 14.7316 30.7907 14.8356 30.8832 14.9417C30.9409 14.7212 31.0048 14.4905 31.0756 14.2504C31.2938 13.5101 31.7604 12.7708 32.2731 12.1224C32.8011 11.4548 33.449 10.7953 34.1273 10.2125C34.8042 9.6309 35.5404 9.10085 36.2547 8.70839ZM11.0049 21.4483C9.71225 22.2536 8.68339 23.0733 7.87209 23.8363L7.87719 23.8033C8.22193 21.5855 9.04208 19.4404 10.6981 18.3889C12.5876 17.1892 14.7403 16.7754 16.8455 16.6826C17.8958 16.6363 18.9133 16.6705 19.8659 16.7188C20.7878 16.7656 21.7191 16.8308 22.4728 16.8308C23.558 16.8308 24.7668 16.6887 25.8023 16.5669C26.1979 16.5203 26.5683 16.4768 26.8968 16.4452C27.5423 16.3833 28.0332 16.3634 28.3873 16.3977C30.6059 16.6126 30.2878 19.7951 30.1848 21.2072C29.9919 23.8538 29.5904 27.0478 28.782 29.5004C28.4108 30.6267 27.9266 31.6272 27.415 32.6841L27.3057 32.9101C26.7669 34.0251 26.2012 35.2234 25.8532 36.5616C25.2112 39.0294 25.3526 41.7842 27.0787 45.5071C26.4716 45.3623 25.8533 45.2243 25.2837 45.1139C24.0017 44.8654 22.7003 44.9486 21.4083 45.0547C20.3394 45.1427 19.4406 45.2166 18.542 45.1005C17.6481 44.985 17.2317 44.8301 17.0564 44.7391C17.2045 43.8313 17.4897 42.9401 17.794 42.0745C18.4139 40.3111 19.3998 38.1442 20.7902 36.2577C21.8245 34.8544 22.9482 33.5658 23.9807 32.3819C24.4042 31.8962 24.8124 31.4281 25.1928 30.9769C25.8178 30.2357 26.3982 29.5029 26.7699 28.8483C26.9555 28.5215 27.1341 28.1381 27.2133 27.728C27.2957 27.302 27.2864 26.7475 26.9528 26.2302C26.5922 25.6711 26.011 25.4436 25.6246 25.342C25.1963 25.2295 24.7184 25.1958 24.2433 25.2079C23.2844 25.2323 22.1215 25.4493 20.9145 25.8523C18.5091 26.6555 15.6939 28.2785 13.8438 30.968C12.0288 33.6065 10.9555 36.1948 10.3433 38.0592C9.81699 37.2846 9.27759 36.432 8.88861 35.6852C8.52203 34.9813 8.37914 34.5386 8.36483 34.3584C8.29444 33.4714 8.32437 33.0982 8.55768 32.646C8.84257 32.0938 9.48849 31.3324 11.0503 29.9629C11.7173 29.3781 12.8021 28.6946 14.1286 27.9715C15.4356 27.259 16.8985 26.5497 18.2728 25.9017C19.6266 25.2634 20.9289 24.669 21.8381 24.2193C22.5751 23.8547 23.6125 23.4424 23.8489 22.5692C23.9682 22.1287 23.8699 21.6044 23.4796 21.2262C22.996 20.7575 22.2283 20.5733 21.595 20.4071C20.8123 20.2017 19.7855 20.0069 18.6372 19.9142C16.3773 19.7318 13.4428 19.9294 11.0049 21.4483ZM30.385 40.8373C30.0664 42.3294 29.8056 43.6002 29.6015 44.6195C27.9751 41.2127 27.9636 39.0247 28.4317 37.2252C28.7069 36.1672 29.1634 35.1811 29.7062 34.0578L29.8267 33.8088C30.3274 32.7755 30.8845 31.6255 31.313 30.3257C32.226 27.5556 32.6445 24.098 32.8413 21.3988C32.9221 20.2903 32.9666 19.2925 32.991 18.4981C33.0551 17.3046 33.2934 16.1425 33.6314 14.9959C33.9536 13.903 35.0356 12.9328 35.8684 12.2173C36.5088 11.6671 37.6115 10.6492 38.5331 10.6492C39.0296 10.6492 39.3254 11.0282 39.6131 11.3756C39.9782 11.8165 40.5433 12.4987 41.332 13.0547C42.3067 13.7416 43.4234 14.175 44.2652 14.4976C44.7429 14.6806 45.2398 14.8353 45.68 15.1003C45.9687 15.2742 46.211 15.6164 46.2981 15.9367C46.349 16.1235 46.3538 16.3492 46.2856 16.6805C46.1974 17.1092 46.0419 17.5225 45.8994 17.9355C45.73 18.4269 45.5286 19.0235 45.4056 19.6786C45.2876 20.3076 45.3558 20.9808 45.4446 21.5281C45.5046 21.8971 45.5864 22.2757 45.6651 22.6207C44.2458 21.9763 42.765 21.5124 41.2231 21.2634C39.3995 20.9688 37.8434 20.8563 36.7312 20.9908C36.203 21.0546 35.575 21.1946 35.0827 21.5648C34.8122 21.7682 34.553 22.0645 34.4165 22.4694C34.2796 22.8758 34.3065 23.2722 34.4049 23.6059C34.6256 24.3547 35.2667 24.8303 35.668 25.0973C36.1407 25.4119 36.7414 25.7212 37.3542 26.0257C37.5396 26.1178 37.7298 26.2113 37.9242 26.3068C39.0644 26.8674 40.346 27.4974 41.6159 28.3179C41.6618 28.3475 41.7147 28.3812 41.7734 28.4185C42.5186 28.8921 44.1899 29.9542 44.0826 30.8801C43.5881 31.1963 43.0448 31.4453 42.5068 31.6918C42.3253 31.775 42.1443 31.8579 41.9661 31.943C40.7692 32.5145 39.2416 33.2439 37.7102 34.0737C36.1292 34.9303 34.4916 35.9216 33.1757 36.9958C31.9102 38.0288 30.7082 39.3231 30.385 40.8373Z" fill="#5E6821"></path><path d="M81.43 45.6795H71.9923L65.0781 20.4431H72.9008L75.8784 31.9783L76.9383 39.8363H77.443L79.4617 31.2227L83.2973 20.4431H93.0378L96.823 31.2227L98.8417 39.8363H99.3464L100.457 31.9783L103.384 20.4431H111.106L103.939 45.6795H94.5014L90.1611 33.5398L88.2937 26.5885H87.7386L85.8208 33.5398L81.43 45.6795Z" fill="#242424"></path><path d="M126.1 46.1832C123.24 46.1832 120.717 45.6459 118.53 44.5713C116.377 43.4967 114.694 41.9855 113.483 40.0378C112.272 38.0565 111.666 35.7394 111.666 33.0865C111.666 30.3999 112.272 28.0828 113.483 26.1351C114.694 24.1538 116.377 22.6258 118.53 21.5512C120.717 20.4766 123.24 19.9393 126.1 19.9393C128.994 19.9393 131.517 20.4766 133.671 21.5512C135.824 22.6258 137.506 24.1538 138.718 26.1351C139.929 28.0828 140.534 30.3999 140.534 33.0865C140.534 35.7394 139.929 38.0565 138.718 40.0378C137.506 41.9855 135.824 43.4967 133.671 44.5713C131.517 45.6459 128.994 46.1832 126.1 46.1832ZM126.1 39.4837C128.657 39.4837 130.441 38.98 131.45 37.9725C132.493 36.9315 133.015 35.3028 133.015 33.0865C133.015 30.8365 132.493 29.191 131.45 28.15C130.441 27.109 128.657 26.5885 126.1 26.5885C123.543 26.5885 121.743 27.109 120.7 28.15C119.691 29.191 119.186 30.8365 119.186 33.0865C119.186 35.3028 119.691 36.9315 120.7 37.9725C121.743 38.98 123.543 39.4837 126.1 39.4837Z" fill="#242424"></path><path d="M156.597 46.1832C153.737 46.1832 151.213 45.6459 149.026 44.5713C146.873 43.4967 145.191 41.9855 143.979 40.0378C142.768 38.0565 142.162 35.7394 142.162 33.0865C142.162 30.3999 142.768 28.0828 143.979 26.1351C145.191 24.1538 146.873 22.6258 149.026 21.5512C151.213 20.4766 153.737 19.9393 156.597 19.9393C159.49 19.9393 162.013 20.4766 164.167 21.5512C166.32 22.6258 168.002 24.1538 169.214 26.1351C170.425 28.0828 171.031 30.3999 171.031 33.0865C171.031 35.7394 170.425 38.0565 169.214 40.0378C168.002 41.9855 166.32 43.4967 164.167 44.5713C162.013 45.6459 159.49 46.1832 156.597 46.1832ZM156.597 39.4837C159.154 39.4837 160.937 38.98 161.946 37.9725C162.989 36.9315 163.511 35.3028 163.511 33.0865C163.511 30.8365 162.989 29.191 161.946 28.15C160.937 27.109 159.154 26.5885 156.597 26.5885C154.039 26.5885 152.239 27.109 151.196 28.15C150.187 29.191 149.682 30.8365 149.682 33.0865C149.682 35.3028 150.187 36.9315 151.196 37.9725C152.239 38.98 154.039 39.4837 156.597 39.4837Z" fill="#242424"></path><path d="M184.922 46.1832C182.298 46.1832 180.077 45.6459 178.261 44.5713C176.444 43.4967 175.064 41.9855 174.122 40.0378C173.18 38.0565 172.709 35.7394 172.709 33.0865C172.709 30.3999 173.163 28.0828 174.072 26.1351C175.014 24.1538 176.36 22.6258 178.109 21.5512C179.892 20.4766 182.029 19.9393 184.519 19.9393C187.513 19.9393 189.818 20.611 191.433 21.9542C193.048 23.2975 194.057 25.0269 194.461 27.1425H195.874V32.8346H194.915C194.915 30.6518 194.276 29.1071 192.997 28.2004C191.753 27.2937 189.919 26.8403 187.496 26.8403C185.881 26.8403 184.536 27.0418 183.459 27.4448C182.416 27.8478 181.642 28.5026 181.137 29.4093C180.633 30.2824 180.38 31.5081 180.38 33.0865C180.38 34.5976 180.633 35.8065 181.137 36.7132C181.642 37.6199 182.416 38.2748 183.459 38.6778C184.536 39.0807 185.881 39.2822 187.496 39.2822C189.111 39.2822 190.457 39.0807 191.534 38.6778C192.644 38.2748 193.485 37.6367 194.057 36.7636C194.629 35.8569 194.915 34.6816 194.915 33.2376H195.874L196.379 38.6778H195.016C194.545 41.1628 193.469 43.0433 191.786 44.3194C190.104 45.5619 187.816 46.1832 184.922 46.1832ZM202.486 45.6795H195.42V38.2244L194.915 37.5696V11.9302H202.486V45.6795Z" fill="#242424"></path><path d="M252.115 45.6795H244.545V32.482C244.545 30.3999 244.124 28.9224 243.283 28.0492C242.442 27.1761 240.928 26.7396 238.741 26.7396C236.453 26.7396 234.888 27.2265 234.047 28.2004C233.24 29.1742 232.836 30.7525 232.836 32.9353H231.877L231.271 28.2004H232.735C232.937 26.7564 233.374 25.4131 234.047 24.1706C234.754 22.9281 235.78 21.9206 237.126 21.1483C238.505 20.3423 240.272 19.9393 242.425 19.9393C244.612 19.9393 246.412 20.3759 247.825 21.249C249.272 22.1221 250.349 23.3143 251.055 24.8254C251.762 26.3366 252.115 28.0492 252.115 29.9634V45.6795ZM213.557 45.6795H205.986V20.4431H213.002V28.3011L213.557 28.553V45.6795ZM232.836 45.6795H225.266V32.482C225.266 30.3999 224.845 28.9224 224.004 28.0492C223.163 27.1761 221.649 26.7396 219.462 26.7396C217.14 26.7396 215.576 27.2265 214.768 28.2004C213.961 29.1742 213.557 30.7525 213.557 32.9353H212.598L212.043 28.0996H213.405C213.641 26.6892 214.095 25.3795 214.768 24.1706C215.441 22.9281 216.434 21.9206 217.746 21.1483C219.058 20.3423 220.774 19.9393 222.894 19.9393C225.08 19.9393 226.864 20.3927 228.243 21.2994C229.656 22.2061 230.699 23.415 231.372 24.9262C232.045 26.4373 232.382 28.1164 232.382 29.9634H232.836V45.6795Z" fill="#242424"></path><path d="M280.995 45.6795H273.929V39.6852L273.526 39.5845V30.7693C273.526 29.1239 273.105 28.0157 272.264 27.4448C271.456 26.8739 270.043 26.5885 268.024 26.5885C266.107 26.5885 264.727 26.8739 263.886 27.4448C263.045 28.0157 262.624 29.0231 262.624 30.4671V30.6686H255.003V30.5175C255.003 28.4354 255.559 26.6052 256.669 25.0269C257.779 23.415 259.344 22.1725 261.363 21.2994C263.415 20.3927 265.821 19.9393 268.58 19.9393C271.406 19.9393 273.727 20.3927 275.544 21.2994C277.395 22.2061 278.757 23.4822 279.632 25.1277C280.541 26.7396 280.995 28.6537 280.995 30.8701V45.6795ZM263.23 46.1832C260.505 46.1832 258.368 45.5787 256.82 44.3698C255.273 43.1609 254.499 41.5154 254.499 39.4333C254.499 38.1572 254.802 37.0659 255.407 36.1592C256.013 35.2525 256.921 34.5305 258.133 33.9932C259.344 33.4223 260.858 33.0361 262.675 32.8346L274.03 31.676V36.008L264.744 37.0659C263.835 37.133 263.163 37.3177 262.725 37.6199C262.321 37.8886 262.12 38.3252 262.12 38.9296C262.12 39.6012 262.389 40.0882 262.927 40.3904C263.465 40.6926 264.29 40.8438 265.4 40.8438C267.217 40.8438 268.714 40.6759 269.892 40.34C271.069 40.0042 271.961 39.4669 272.567 38.7281C273.206 37.9558 273.526 36.9315 273.526 35.6554L274.232 35.6051V39.8867H273.526C272.954 41.8344 271.793 43.3792 270.043 44.5209C268.327 45.6291 266.056 46.1832 263.23 46.1832Z" fill="#242424"></path><path d="M291.898 45.6795H284.327V20.4431H291.343V27.6463L291.898 27.8981V45.6795ZM291.898 31.0716H290.384V27.1425H291.797C292.032 25.7657 292.487 24.54 293.159 23.4654C293.866 22.3572 294.808 21.5009 295.986 20.8964C297.163 20.2584 298.593 19.9393 300.276 19.9393C302.193 19.9393 303.724 20.3423 304.868 21.1483C306.046 21.9206 306.904 22.9785 307.442 24.3217C307.98 25.6314 308.25 27.109 308.25 28.7545V32.9353H300.679V30.316C300.679 28.9056 300.36 27.8981 299.72 27.2937C299.115 26.6556 298.038 26.3366 296.49 26.3366C294.808 26.3366 293.614 26.7228 292.907 27.4952C292.234 28.2675 291.898 29.4597 291.898 31.0716Z" fill="#242424"></path><path d="M328.302 45.6795H322.044C319.083 45.6795 316.761 44.9575 315.079 43.5135C313.397 42.0695 312.556 39.7524 312.556 36.5621V15.557H320.126V35.7058C320.126 36.9819 320.395 37.8382 320.933 38.2748C321.505 38.6778 322.447 38.8792 323.76 38.8792H328.302V45.6795ZM328.302 26.6892H308.569V20.4431H328.302V26.6892Z" fill="#242424"></path><path d="M339.868 45.6795H330.128V36.8644H339.868V45.6795Z" fill="#242424"></path></g><defs><clipPath id="clip0_12581_15845"><rect width="340" height="57" fill="white"></rect></clipPath></defs></svg> 